<?xml version="1.0" standalone="no"?>
<!DOCTYPE svg PUBLIC "-//W3C//DTD SVG 20010904//EN"
 "http://www.w3.org/TR/2001/REC-SVG-20010904/DTD/svg10.dtd">
<svg version="1.0" xmlns="http://www.w3.org/2000/svg"
 width="512.000000pt" height="512.000000pt" viewBox="0 0 512.000000 512.000000"
 preserveAspectRatio="xMidYMid meet">

<g transform="translate(0.000000,512.000000) scale(0.100000,-0.100000)"
fill="#9393ad" stroke="none">
<path d="M2220 4899 c-230 -26 -463 -141 -630 -309 -132 -134 -227 -301 -278
-488 -26 -97 -26 -98 -30 -554 l-3 -458 -240 0 c-264 0 -281 -3 -341 -67 -61
-64 -58 8 -58 -1263 0 -1027 2 -1165 16 -1198 19 -47 58 -88 106 -113 36 -18
85 -19 1795 -19 1690 0 1760 1 1798 19 22 10 52 31 67 47 61 66 58 -7 58 1264
0 1271 3 1199 -58 1263 -60 64 -77 67 -341 67 l-240 0 -3 458 c-4 456 -4 457
-30 554 -119 438 -477 748 -921 797 -112 13 -557 12 -667 0z m685 -434 c233
-49 435 -245 489 -475 13 -53 16 -143 16 -477 l0 -413 -850 0 -850 0 0 413 c0
461 3 485 68 617 54 110 168 223 282 279 129 63 174 69 495 70 209 0 298 -3
350 -14z m1145 -2707 l0 -908 -1490 0 -1490 0 0 908 0 907 1490 0 1490 0 0
-907z"/>
</g>
</svg>
