<?xml version="1.0" standalone="no"?>
<!DOCTYPE svg PUBLIC "-//W3C//DTD SVG 20010904//EN"
 "http://www.w3.org/TR/2001/REC-SVG-20010904/DTD/svg10.dtd">
<svg version="1.0" xmlns="http://www.w3.org/2000/svg"
 width="512.000000pt" height="512.000000pt" viewBox="0 0 912.000000 912.000000"
 preserveAspectRatio="xMidYMid meet">

<g transform="translate(0.000000,512.000000) scale(0.100000,-0.100000)"
fill="#9393ad" stroke="none">
<path d="M2345 4260 c-796 -59 -1469 -409 -1954 -1019 -195 -246 -390 -584
-391 -678 0 -46 31 -122 101 -248 418 -752 1070 -1244 1866 -1404 360 -73 825
-73 1186 -1 359 73 659 197 962 401 368 248 671 584 904 1004 69 123 101 202
101 245 0 43 -32 122 -101 245 -459 827 -1197 1335 -2090 1439 -164 19 -435
27 -584 16z m476 -623 c215 -56 364 -140 520 -296 114 -114 185 -218 240 -350
293 -705 -193 -1489 -954 -1537 -608 -38 -1139 434 -1174 1046 -24 426 207
835 587 1038 96 51 224 96 320 112 41 6 82 13 90 15 8 2 74 2 145 0 95 -3 156
-10 226 -28z"/>
<path d="M2425 3315 c-399 -73 -679 -452 -626 -847 47 -355 315 -622 671 -670
344 -45 690 168 810 499 163 451 -117 934 -590 1019 -92 16 -173 16 -265 -1z"/>
</g>
</svg>
